<?xml version="1.0" encoding="UTF-8" standalone="no"?>
<!-- Created with Inkscape (http://www.inkscape.org/) -->

<svg
   xmlns:osb="http://www.openswatchbook.org/uri/2009/osb"
   xmlns:dc="http://purl.org/dc/elements/1.1/"
   xmlns:cc="http://creativecommons.org/ns#"
   xmlns:rdf="http://www.w3.org/1999/02/22-rdf-syntax-ns#"
   xmlns:svg="http://www.w3.org/2000/svg"
   xmlns="http://www.w3.org/2000/svg"
   xmlns:sodipodi="http://sodipodi.sourceforge.net/DTD/sodipodi-0.dtd"
   xmlns:inkscape="http://www.inkscape.org/namespaces/inkscape"
   width="64"
   height="64"
   viewBox="0 0 16.933333 16.933333"
   version="1.1"
   id="svg8"
   inkscape:export-filename="C:\Users\awais\cell.png"
   inkscape:export-xdpi="96"
   inkscape:export-ydpi="96"
   inkscape:version="0.92.3 (2405546, 2018-03-11)"
   sodipodi:docname="cellline-white.svg">
  <defs
     id="defs2">
    <marker
       inkscape:stockid="Arrow1Lstart"
       orient="auto"
       refY="0.0"
       refX="0.0"
       id="Arrow1Lstart"
       style="overflow:visible"
       inkscape:isstock="true">
      <path
         id="path827"
         d="M 0.0,0.0 L 5.0,-5.0 L -12.5,0.0 L 5.0,5.0 L 0.0,0.0 z "
         style="fill-rule:evenodd;stroke:#207a79;stroke-width:1pt;stroke-opacity:1;fill:#207a79;fill-opacity:1"
         transform="scale(0.8) translate(12.5,0)" />
    </marker>
    <linearGradient
       id="linearGradient3246"
       osb:paint="solid">
      <stop
         style="stop-color:#2ecdff;stop-opacity:1;"
         offset="0"
         id="stop3244" />
    </linearGradient>
  </defs>
  <sodipodi:namedview
     id="base"
     pagecolor="#ffffff"
     bordercolor="#666666"
     borderopacity="1.0"
     inkscape:pageopacity="0.0"
     inkscape:pageshadow="2"
     inkscape:zoom="8.4624937"
     inkscape:cx="31.619477"
     inkscape:cy="27.376295"
     inkscape:document-units="mm"
     inkscape:current-layer="layer1"
     showgrid="false"
     units="px"
     inkscape:window-width="1482"
     inkscape:window-height="1002"
     inkscape:window-x="179"
     inkscape:window-y="0"
     inkscape:window-maximized="0"
     showguides="true"
     inkscape:guide-bbox="true">
    <sodipodi:guide
       position="9.0357033,4.9712001"
       orientation="0,1"
       id="guide3386"
       inkscape:locked="false" />
    <sodipodi:guide
       position="8.7171345,6.9457232"
       orientation="1,0"
       id="guide3388"
       inkscape:locked="false" />
  </sodipodi:namedview>
  <metadata
     id="metadata5">
    <rdf:RDF>
      <cc:Work
         rdf:about="">
        <dc:format>image/svg+xml</dc:format>
        <dc:type
           rdf:resource="http://purl.org/dc/dcmitype/StillImage" />
        <dc:title />
      </cc:Work>
    </rdf:RDF>
  </metadata>
  <g
     inkscape:label="Layer 1"
     inkscape:groupmode="layer"
     id="layer1"
     transform="translate(0,-280.06667)">
    <path
       id="path1124-9"
       style="fill:none;stroke:#ffffff;stroke-width:0.26596203px;stroke-linecap:round;stroke-linejoin:round;stroke-opacity:1"
       d="m 15.983499,286.70388 0.03623,2.79239 m -14.9590502,-2.78259 0.062531,2.81389 c 0.036225,0.57276 3.3731175,1.01204 7.4764173,1.00904 m 7.4200989,-1.04034 c -1.7e-5,0.57278 -3.316815,1.03781 -7.4200989,1.04034 m 7.3850339,-3.81436 c -1.7e-5,0.57278 -3.316816,1.03781 -7.4200996,1.04034 -4.1032721,0.003 -7.4493513,-0.4584 -7.4856152,-1.03115 -0.036234,-0.57276 3.251026,-1.04186 7.3540048,-1.04945 4.102969,-0.008 7.478081,0.4492 7.550548,1.02189"
       inkscape:connector-curvature="0"
       sodipodi:nodetypes="ccccccccscsc" />
    <path
       style="opacity:1;fill:#ffffff;fill-opacity:1;fill-rule:nonzero;stroke:#ffffff;stroke-width:0.2;stroke-linecap:round;stroke-linejoin:round;stroke-miterlimit:4;stroke-dasharray:none;stroke-opacity:1;paint-order:markers fill stroke"
       id="path1145"
       sodipodi:type="arc"
       sodipodi:cx="3.5173585"
       sodipodi:cy="286.74496"
       sodipodi:rx="0.42208302"
       sodipodi:ry="0.15632704"
       sodipodi:start="0"
       sodipodi:end="6.2655226"
       sodipodi:open="true"
       d="m 3.9394416,286.74496 a 0.42208302,0.15632704 0 0 1 -0.4202193,0.15633 0.42208302,0.15632704 0 0 1 -0.4239303,-0.15494 0.42208302,0.15632704 0 0 1 0.4164754,-0.1577 0.42208302,0.15632704 0 0 1 0.4276083,0.15355" />
    <path
       style="opacity:1;fill:#ffffff;fill-opacity:1;fill-rule:nonzero;stroke:#ffffff;stroke-width:0.2;stroke-linecap:round;stroke-linejoin:round;stroke-miterlimit:4;stroke-dasharray:none;stroke-opacity:1;paint-order:markers fill stroke"
       id="path1145-6"
       sodipodi:type="arc"
       sodipodi:cx="5.5339708"
       sodipodi:cy="286.33847"
       sodipodi:rx="0.42208302"
       sodipodi:ry="0.15632704"
       sodipodi:start="0"
       sodipodi:end="6.2655226"
       sodipodi:open="true"
       d="m 5.9560539,286.33847 a 0.42208302,0.15632704 0 0 1 -0.4202193,0.15633 0.42208302,0.15632704 0 0 1 -0.4239303,-0.15495 0.42208302,0.15632704 0 0 1 0.4164753,-0.15769 0.42208302,0.15632704 0 0 1 0.4276084,0.15355" />
    <path
       style="opacity:1;fill:#ffffff;fill-opacity:1;fill-rule:nonzero;stroke:#ffffff;stroke-width:0.2;stroke-linecap:round;stroke-linejoin:round;stroke-miterlimit:4;stroke-dasharray:none;stroke-opacity:1;paint-order:markers fill stroke"
       id="path1145-7"
       sodipodi:type="arc"
       sodipodi:cx="8.7930193"
       sodipodi:cy="286.24466"
       sodipodi:rx="0.42208302"
       sodipodi:ry="0.15632704"
       sodipodi:start="0"
       sodipodi:end="6.2655226"
       sodipodi:open="true"
       d="m 9.2151023,286.24466 a 0.42208302,0.15632704 0 0 1 -0.4202192,0.15632 0.42208302,0.15632704 0 0 1 -0.4239304,-0.15494 0.42208302,0.15632704 0 0 1 0.4164754,-0.15769 0.42208302,0.15632704 0 0 1 0.4276084,0.15355" />
    <path
       style="opacity:1;fill:#ffffff;fill-opacity:1;fill-rule:nonzero;stroke:#ffffff;stroke-width:0.2;stroke-linecap:round;stroke-linejoin:round;stroke-miterlimit:4;stroke-dasharray:none;stroke-opacity:1;paint-order:markers fill stroke"
       id="path1145-8"
       sodipodi:type="arc"
       sodipodi:cx="11.693257"
       sodipodi:cy="286.33847"
       sodipodi:rx="0.42208302"
       sodipodi:ry="0.15632704"
       sodipodi:start="0"
       sodipodi:end="6.2655226"
       sodipodi:open="true"
       d="m 12.11534,286.33847 a 0.42208302,0.15632704 0 0 1 -0.420219,0.15633 0.42208302,0.15632704 0 0 1 -0.42393,-0.15495 0.42208302,0.15632704 0 0 1 0.416475,-0.15769 0.42208302,0.15632704 0 0 1 0.427609,0.15355" />
    <path
       style="opacity:1;fill:#ffffff;fill-opacity:1;fill-rule:nonzero;stroke:#ffffff;stroke-width:0.2;stroke-linecap:round;stroke-linejoin:round;stroke-miterlimit:4;stroke-dasharray:none;stroke-opacity:1;paint-order:markers fill stroke"
       id="path1145-77"
       sodipodi:type="arc"
       sodipodi:cx="13.756774"
       sodipodi:cy="286.77621"
       sodipodi:rx="0.42208302"
       sodipodi:ry="0.15632704"
       sodipodi:start="0"
       sodipodi:end="6.2655226"
       sodipodi:open="true"
       d="m 14.178857,286.77621 a 0.42208302,0.15632704 0 0 1 -0.420219,0.15633 0.42208302,0.15632704 0 0 1 -0.423931,-0.15494 0.42208302,0.15632704 0 0 1 0.416476,-0.1577 0.42208302,0.15632704 0 0 1 0.427608,0.15355" />
    <path
       style="opacity:1;fill:#ffffff;fill-opacity:1;fill-rule:nonzero;stroke:#ffffff;stroke-width:0.2;stroke-linecap:round;stroke-linejoin:round;stroke-miterlimit:4;stroke-dasharray:none;stroke-opacity:1;paint-order:markers fill stroke"
       id="path1145-3"
       sodipodi:type="arc"
       sodipodi:cx="7.2535686"
       sodipodi:cy="287.15137"
       sodipodi:rx="0.42208302"
       sodipodi:ry="0.15632704"
       sodipodi:start="0"
       sodipodi:end="6.2655226"
       sodipodi:open="true"
       d="m 7.6756517,287.15137 a 0.42208302,0.15632704 0 0 1 -0.4202193,0.15632 0.42208302,0.15632704 0 0 1 -0.4239303,-0.15494 0.42208302,0.15632704 0 0 1 0.4164754,-0.1577 0.42208302,0.15632704 0 0 1 0.4276083,0.15356" />
    <path
       style="opacity:1;fill:#ffffff;fill-opacity:1;fill-rule:nonzero;stroke:#ffffff;stroke-width:0.2;stroke-linecap:round;stroke-linejoin:round;stroke-miterlimit:4;stroke-dasharray:none;stroke-opacity:1;paint-order:markers fill stroke"
       id="path1145-78"
       sodipodi:type="arc"
       sodipodi:cx="10.348845"
       sodipodi:cy="287.18265"
       sodipodi:rx="0.42208302"
       sodipodi:ry="0.15632704"
       sodipodi:start="0"
       sodipodi:end="6.2655226"
       sodipodi:open="true"
       d="m 10.770928,287.18265 a 0.42208302,0.15632704 0 0 1 -0.42022,0.15632 0.42208302,0.15632704 0 0 1 -0.42393,-0.15494 0.42208302,0.15632704 0 0 1 0.416475,-0.1577 0.42208302,0.15632704 0 0 1 0.427609,0.15356" />
  </g>
</svg>
