<?xml version="1.0" encoding="UTF-8" standalone="no"?>
<!-- Created with Inkscape (http://www.inkscape.org/) -->

<svg
   xmlns:osb="http://www.openswatchbook.org/uri/2009/osb"
   xmlns:dc="http://purl.org/dc/elements/1.1/"
   xmlns:cc="http://creativecommons.org/ns#"
   xmlns:rdf="http://www.w3.org/1999/02/22-rdf-syntax-ns#"
   xmlns:svg="http://www.w3.org/2000/svg"
   xmlns="http://www.w3.org/2000/svg"
   xmlns:sodipodi="http://sodipodi.sourceforge.net/DTD/sodipodi-0.dtd"
   xmlns:inkscape="http://www.inkscape.org/namespaces/inkscape"
   width="64"
   height="64"
   viewBox="0 0 16.933333 16.933333"
   version="1.1"
   id="svg8"
   inkscape:export-filename="C:\Users\awais\cell.png"
   inkscape:export-xdpi="96"
   inkscape:export-ydpi="96"
   inkscape:version="0.92.3 (2405546, 2018-03-11)"
   sodipodi:docname="cellline.svg">
  <defs
     id="defs2">
    <linearGradient
       id="linearGradient3246"
       osb:paint="solid">
      <stop
         style="stop-color:#2ecdff;stop-opacity:1;"
         offset="0"
         id="stop3244" />
    </linearGradient>
  </defs>
  <sodipodi:namedview
     id="base"
     pagecolor="#ffffff"
     bordercolor="#666666"
     borderopacity="1.0"
     inkscape:pageopacity="0.0"
     inkscape:pageshadow="2"
     inkscape:zoom="8.4624937"
     inkscape:cx="28.294577"
     inkscape:cy="32.360298"
     inkscape:document-units="mm"
     inkscape:current-layer="layer1"
     showgrid="false"
     units="px"
     inkscape:window-width="1482"
     inkscape:window-height="1002"
     inkscape:window-x="2024"
     inkscape:window-y="104"
     inkscape:window-maximized="0"
     showguides="true"
     inkscape:guide-bbox="true">
    <sodipodi:guide
       position="9.0357033,4.9712001"
       orientation="0,1"
       id="guide3386"
       inkscape:locked="false" />
    <sodipodi:guide
       position="8.7171345,6.9457232"
       orientation="1,0"
       id="guide3388"
       inkscape:locked="false" />
  </sodipodi:namedview>
  <metadata
     id="metadata5">
    <rdf:RDF>
      <cc:Work
         rdf:about="">
        <dc:format>image/svg+xml</dc:format>
        <dc:type
           rdf:resource="http://purl.org/dc/dcmitype/StillImage" />
        <dc:title />
      </cc:Work>
    </rdf:RDF>
  </metadata>
  <g
     inkscape:label="Layer 1"
     inkscape:groupmode="layer"
     id="layer1"
     transform="translate(0,-280.06667)">
    <g
       id="g3391">
      <path
         sodipodi:nodetypes="ccsccscsc"
         inkscape:connector-curvature="0"
         d="m 16.276599,289.4641 -0.12242,2.5647 c -0.290761,0.8772 -3.645069,1.51191 -7.4262493,1.58125 -3.7523546,0.0688 -6.5385835,-0.88582 -7.73787313,-1.61942 L 0.9779594,289.8252 c 0.5660318,-1.00434 3.5849165,-1.58316 7.815818,-1.58041 4.1966716,0.003 6.6325556,0.54813 7.4894286,1.25763 -8e-6,0.78091 -3.318554,2.06498 -7.549816,2.06498 -4.2312621,0 -7.7176054,-0.97716 -7.7554306,-1.7422"
         style="fill:#ecffff;fill-opacity:1;fill-rule:nonzero;stroke:#000000;stroke-width:0.15875;stroke-linecap:butt;stroke-linejoin:miter;stroke-miterlimit:4;stroke-dasharray:none;stroke-opacity:1"
         id="path1762" />
    </g>
    <path
       style="fill:#207a79;fill-opacity:1;fill-rule:nonzero;stroke:none;stroke-width:0.28948402;stroke-linecap:round;stroke-linejoin:round;stroke-miterlimit:4;stroke-dasharray:none;stroke-opacity:1"
       d="m 6.1352228,289.10974 c -0.00142,0.16043 -0.670353,0.22911 -1.3542802,0.28323 -2.2526998,0.17825 -1.4431734,-0.0406 -1.4686122,-0.25932 -0.063905,-0.15137 0.4786738,-0.28593 1.2302961,-0.30512 0.7516272,-0.0192 1.4451147,0.0838 1.572477,0.23356"
       id="path1806"
       inkscape:connector-curvature="0"
       sodipodi:nodetypes="cscsc" />
    <path
       style="fill:#207a79;fill-opacity:1;fill-rule:nonzero;stroke:none;stroke-width:0.28948402;stroke-linecap:round;stroke-linejoin:round;stroke-miterlimit:4;stroke-dasharray:none;stroke-opacity:1"
       d="m 8.737254,290.10193 c 1.5e-6,0.15191 -0.6461096,0.55085 -1.3542802,0.28323 -0.9132605,-0.34512 -1.4088255,-0.11722 -1.4686121,-0.25932 0.023543,-0.22132 0.6736112,-0.71058 1.230296,-0.30512 0.6005473,0.43741 1.434838,0.13006 1.572477,0.23356"
       id="path1806-5"
       inkscape:connector-curvature="0"
       sodipodi:nodetypes="cscsc" />
    <path
       style="fill:#207a79;fill-opacity:1;fill-rule:nonzero;stroke:none;stroke-width:0.28948402;stroke-linecap:round;stroke-linejoin:round;stroke-miterlimit:4;stroke-dasharray:none;stroke-opacity:1"
       d="m 12.280781,289.01526 c 2e-6,0.15191 -0.597258,0.27682 -1.35428,0.28323 -0.757024,0.006 -1.4047063,-0.10795 -1.4686122,-0.25932 -0.1780647,-0.21746 -0.1750132,-0.66438 1.2302962,-0.30512 0.728445,0.18622 1.445115,0.0838 1.572477,0.23356"
       id="path1806-1"
       inkscape:connector-curvature="0"
       sodipodi:nodetypes="cscsc" />
    <path
       style="fill:#207a79;fill-opacity:1;fill-rule:nonzero;stroke:none;stroke-width:0.28948402;stroke-linecap:round;stroke-linejoin:round;stroke-miterlimit:4;stroke-dasharray:none;stroke-opacity:1"
       d="m 13.839933,290.1492 c 2e-6,0.15191 -0.597905,0.31518 -1.35428,0.28323 -1.266023,-0.0535 -1.628312,-0.13426 -1.468613,-0.25932 -0.06391,-0.15137 0.636904,-0.28201 1.230296,-0.30512 0.173668,-0.007 1.446553,0.0795 1.572478,0.23356"
       id="path1806-59"
       inkscape:connector-curvature="0"
       sodipodi:nodetypes="cscsc" />
  </g>
</svg>
