<?xml version="1.0" encoding="utf-8"?>
<!-- Generator: Adobe Illustrator 16.0.4, SVG Export Plug-In . SVG Version: 6.00 Build 0)  -->
<!DOCTYPE svg PUBLIC "-//W3C//DTD SVG 1.1//EN" "http://www.w3.org/Graphics/SVG/1.1/DTD/svg11.dtd">
<svg xmlns="http://www.w3.org/2000/svg" version="1.1" x="0px" y="0px" width="64px" height="64px" viewBox="0 0 640 640" enable-background="new 0 0 640 640" xml:space="preserve">
<g id="background">
    <g id="outer">
        <circle fill="#4A5C86" cx="320" cy="320" r="316"/>
    </g>
    <g id="inner">
        <circle fill="#EDF2F8" cx="320" cy="320" r="284"/>
    </g>
</g>
<g id="logo">
	<rect x="180" y="281" fill="#BF8F30" width="280" height="162"/>
	<polygon fill="#FFD073" points="175.3574,283 319,100 462.6426,283"/>
	<path fill="none" stroke="#06266F" stroke-width="36" stroke-miterlimit="10" d="M460.6875,505.2334   c-3.6016,3.8418-8.4941,6.2666-13.5938,6.2666H193.8945c-10.585,0-19.1738-9.3633-19.1997-20.624l-0.4888-207.3442   c-0.0112-4.8174,1.5771-9.5171,4.4854-13.2075L305.291,110.1938c3.6494-4.6294,9.0361-6.6938,14.7148-6.6938   c0.002,0,0.002,0,0.0039,0c5.6816,0,11.0684,2.0356,14.7148,6.667l126.5986,160.4194c2.8838,3.6641,4.4697,8.1562,4.4814,12.9341   l0.4893,207.1689C466.3066,496.1143,464.2891,501.3916,460.6875,505.2334z"/>
	<polygon fill="#06266F" points="250.23,196 319,107.3008 387.7705,196"/>
	<rect x="185" y="434" fill="#06266F" width="270" height="69"/>
    <line fill="none" stroke="#06266F" stroke-width="36" stroke-linecap="round" stroke-miterlimit="10" x1="372" y1="449" x2="372" y2="286"/>
    <line fill="none" stroke="#06266F" stroke-width="36" stroke-linecap="round" stroke-miterlimit="10" x1="268" y1="449" x2="268" y2="286"/>
</g>
</svg>
